<svg width="81" height="81" viewBox="0 0 81 81" fill="none" xmlns="http://www.w3.org/2000/svg">
<g clip-path="url(#clip0_8223_33967)">
<path d="M40.4913 38.8652C40.918 31.3452 37.558 22.9719 32.198 17.9052C27.1046 13.0786 20.438 10.3052 13.6113 8.97191C11.1846 8.46524 8.57131 8.19857 6.33131 9.29191C4.43797 10.1719 3.05131 11.8786 2.19797 13.8519C1.34464 15.7719 1.05131 17.9052 0.891307 19.9852C0.46464 25.4252 1.13131 30.9719 2.78464 36.1986C3.71797 39.1319 4.97131 42.0119 7.02464 44.3052C9.07797 46.5719 14.6246 47.7452 17.638 47.6919C13.6646 49.0519 8.22464 53.6386 7.98464 57.9052C7.71797 62.1986 9.69131 66.3852 12.678 69.3719C14.7313 71.3719 17.318 72.9186 20.1713 73.4252C26.118 74.4652 32.118 70.7586 35.4513 65.6386C37.9313 61.8252 39.158 57.3719 39.798 52.9186C40.518 48.1186 40.4913 46.0386 40.4913 38.8652Z" fill="#FFDD6A"/>
<path d="M40.4348 38.8648C40.0082 31.3448 43.3682 22.9715 48.7282 17.9048C53.8215 13.0781 60.4882 10.3048 67.3148 8.94481C69.7415 8.43814 72.3815 8.17147 74.5948 9.26481C76.4882 10.1448 77.8748 11.8515 78.7282 13.8248C79.5815 15.7448 79.8748 17.8781 80.0348 19.9581C80.4615 25.3981 79.7948 30.9448 78.1415 36.1715C77.2082 39.1048 75.9548 41.9848 73.9015 44.2781C71.8482 46.5448 66.3015 47.7181 63.2882 47.6648C67.2615 49.0248 72.7015 53.6115 72.9415 57.8781C73.2082 62.1715 71.2348 66.3581 68.2482 69.3448C66.1948 71.3448 63.6082 72.8915 60.7548 73.3981C54.8082 74.4381 48.8082 70.7315 45.4748 65.6115C42.9948 61.7981 41.7682 57.3448 41.1282 52.8915C40.4082 48.1181 40.4348 46.0381 40.4348 38.8648Z" fill="#FFDD6A"/>
<path d="M38.6491 30.1712L39.3691 30.1445C39.3691 30.0378 38.6757 19.9312 33.9557 10.8645L33.2891 11.2112C37.9824 20.1178 38.6491 30.0912 38.6491 30.1712Z" fill="#88211A"/>
<path d="M42.3834 30.1656C42.3834 30.0589 43.0501 20.0589 47.7167 11.1789L47.0501 10.8323C42.3567 19.8456 41.6367 30.0056 41.6367 30.1123L42.3834 30.1656Z" fill="#88211A"/>
<path d="M40.4354 61.6401C27.4754 61.6401 16.9688 52.6534 16.9688 41.5334C16.9688 30.4134 27.4754 21.4268 40.3821 21.4268C53.3421 21.4268 63.7954 30.4134 63.7954 41.5334C63.7954 52.6534 53.3954 61.6401 40.4354 61.6401Z" fill="#FBAE68"/>
<path d="M20.7109 43.9335C20.7109 43.5082 20.7109 43.0828 20.7109 42.6574C20.7109 42.4254 20.7109 42.232 20.7398 42C20.7687 41.4586 20.8265 40.9173 20.8842 40.4145C20.9709 39.7572 21.0864 39.1384 21.202 38.5197C21.3753 37.785 21.5486 37.0889 21.7796 36.3929C22.0396 35.6195 22.3573 34.8847 22.7039 34.1887C23.0794 33.4153 23.5415 32.6805 24.0036 32.0232C24.5524 31.2498 25.159 30.5924 25.7944 29.9736C26.5165 29.2776 27.2964 28.6589 28.1051 28.1562C29.0582 27.5374 30.0403 27.0734 31.0223 26.6867C32.2065 26.2227 33.4196 25.9133 34.6327 25.6426C36.0769 25.3719 37.5211 25.2172 38.9941 25.1786C39.5429 25.1786 40.0628 25.1399 40.6116 25.1786C42.6046 25.2172 44.5975 25.4106 46.5616 25.836C48.1213 26.184 49.6521 26.6867 51.1252 27.4214C52.3094 28.0015 53.4358 28.7362 54.4756 29.6643C55.3133 30.4377 56.122 31.3271 56.7863 32.3712C57.364 33.2606 57.855 34.2273 58.2594 35.2328C58.606 36.1222 58.8659 37.0889 59.0681 38.0557C59.2414 38.8677 59.328 39.7185 59.3858 40.5692C59.5591 43.3535 59.5013 46.5244 58.4615 49.038C58.1149 49.8887 57.6528 50.6621 57.1618 51.3582C56.5263 52.2476 55.7754 52.9823 54.9955 53.601C53.9846 54.4131 52.887 55.0705 51.7606 55.5732C50.2875 56.2306 48.7567 56.6946 47.2259 57.004C45.2329 57.4294 43.2111 57.6227 41.1893 57.6614C40.9293 57.6614 40.6405 57.6614 40.3805 57.6614C38.7631 57.6614 37.1456 57.6227 35.557 57.4294C34.2284 57.2747 32.8997 57.0427 31.6 56.6946C30.5313 56.3853 29.4626 56.0372 28.4228 55.5345C27.5563 55.1478 26.7187 54.6451 25.9388 54.0651C25.2745 53.601 24.6391 53.021 24.0614 52.4023C23.5704 51.8609 23.1083 51.2808 22.7039 50.6621C22.3573 50.1207 22.0396 49.5407 21.7796 48.922C21.5486 48.4192 21.3753 47.8392 21.2308 47.2978C21.1153 46.8338 20.9998 46.3697 20.942 45.9057C20.8842 45.5577 20.8554 45.171 20.8265 44.8229C20.7109 44.4749 20.7109 44.2042 20.7109 43.9335Z" fill="white"/>
<path d="M34.4609 50.1614C37.8786 51.7856 41.0939 51.8699 44.4609 50.1614" stroke="#FBAE68" stroke-width="1.25" stroke-linecap="round"/>
<path d="M33.23 12.596C34.5997 12.596 35.71 11.4857 35.71 10.116C35.71 8.74632 34.5997 7.63599 33.23 7.63599C31.8603 7.63599 30.75 8.74632 30.75 10.116C30.75 11.4857 31.8603 12.596 33.23 12.596Z" fill="#88211A"/>
<path d="M47.773 12.596C49.1426 12.596 50.253 11.4857 50.253 10.116C50.253 8.74632 49.1426 7.63599 47.773 7.63599C46.4033 7.63599 45.293 8.74632 45.293 10.116C45.293 11.4857 46.4033 12.596 47.773 12.596Z" fill="#88211A"/>
<path d="M31.225 45.8697C33.58 45.8697 35.489 43.4726 35.489 40.5156C35.489 37.5585 33.58 35.1614 31.225 35.1614C28.87 35.1614 26.9609 37.5585 26.9609 40.5156C26.9609 43.4726 28.87 45.8697 31.225 45.8697Z" fill="#1F2124"/>
<path d="M32.9055 43.7141C33.7487 43.7141 34.4322 43.0292 34.4322 42.1843C34.4322 41.3394 33.7487 40.6545 32.9055 40.6545C32.0624 40.6545 31.3789 41.3394 31.3789 42.1843C31.3789 43.0292 32.0624 43.7141 32.9055 43.7141Z" fill="white"/>
<path d="M47.9789 45.8697C50.3339 45.8697 52.2429 43.4726 52.2429 40.5156C52.2429 37.5585 50.3339 35.1614 47.9789 35.1614C45.6239 35.1614 43.7148 37.5585 43.7148 40.5156C43.7148 43.4726 45.6239 45.8697 47.9789 45.8697Z" fill="#1F2124"/>
<path d="M46.0071 43.7141C46.8502 43.7141 47.5337 43.0292 47.5337 42.1843C47.5337 41.3394 46.8502 40.6545 46.0071 40.6545C45.164 40.6545 44.4805 41.3394 44.4805 42.1843C44.4805 43.0292 45.164 43.7141 46.0071 43.7141Z" fill="white"/>
</g>
<defs>
<clipPath id="clip0_8223_33967">
<rect width="80" height="80" fill="white" transform="translate(0.460938 0.598389)"/>
</clipPath>
</defs>
</svg>
