<svg width="40" height="40" viewBox="0 0 40 40" fill="none" xmlns="http://www.w3.org/2000/svg">
<rect width="40" height="40" rx="8.88889" fill="#01A92E"/>
<path d="M28.3301 13.4375C29.2522 13.4375 30 14.1853 30 15.1074V23.0459C30 25.4655 29.5972 27.4522 28.792 29.0059C27.9868 30.534 26.8262 31.655 25.3105 32.3682C23.9115 33.0367 20.8345 33.3919 18.7383 33.4336L18.333 33.4375L18.1631 33.4287C17.3253 33.3437 16.6712 32.6385 16.667 31.7793V25.1045H11.6484C10.7365 25.0945 10 24.3528 10 23.4385C10 23.3676 10.0061 23.298 10.0146 23.2295C10.0053 23.1717 10 23.1107 10 23.0459V15.125C10 14.1931 10.7556 13.4375 11.6875 13.4375C12.6194 13.4376 13.375 14.1931 13.375 15.125V16.7705H26.6611V15.1074C26.6611 14.1854 27.4081 13.4377 28.3301 13.4375ZM13.375 21.7715H18.3145C18.3206 21.7714 18.3268 21.7705 18.333 21.7705C19.2534 21.7705 19.9999 22.5171 20 23.4375V30.3037C22.0822 30.2941 23.7106 29.7223 24.8848 28.5859C26.0689 27.4398 26.6611 25.72 26.6611 23.4277V20.1045H13.375V21.7715ZM27.3789 8.84082C27.6401 8.46187 28.1591 8.36578 28.5381 8.62695C28.9169 8.88814 29.012 9.40723 28.751 9.78613L25.1787 14.9697C24.9176 15.3486 24.3985 15.4445 24.0195 15.1836C23.6407 14.9225 23.5448 14.4033 23.8057 14.0244L27.3789 8.84082ZM11.667 8.4375C12.5873 8.43768 13.333 9.18413 13.333 10.1045C13.3328 11.0247 12.5872 11.7703 11.667 11.7705C10.7466 11.7705 10.0002 11.0248 10 10.1045C10 9.18402 10.7465 8.4375 11.667 8.4375Z" fill="white"/>
</svg>
